<svg viewBox="0 0 24 24" xmlns="http://www.w3.org/2000/svg" height="25px"><path d="m0 0h24v24h-24z" fill="#fff" opacity="0"/><g fill="black"><path d="m18.28 8.37a1 1 0 1 0 -1.56 1.26 4 4 0 0 1 0 4.74 1 1 0 0 0 .78 1.63 1 1 0 0 0 .78-.37 6 6 0 0 0 0-7.26z"/><path d="m19.64 5.23a1 1 0 1 0 -1.28 1.54 6.8 6.8 0 0 1 2.64 5.23 6.8 6.8 0 0 1 -2.64 5.23 1 1 0 0 0 -.13 1.41 1 1 0 0 0 .77.36 1 1 0 0 0 .64-.23 8.75 8.75 0 0 0 3.36-6.77 8.75 8.75 0 0 0 -3.36-6.77z"/><path d="m14.47 3.12a1 1 0 0 0 -1 0l-6.47 4.45h-5a1 1 0 0 0 -1 1v6.86a1 1 0 0 0 1 1h5l6.41 4.4a1.06 1.06 0 0 0 .59.17 1 1 0 0 0 1-1v-16a1 1 0 0 0 -.53-.88z"/></g></svg>